mtllib ./Glass.mtl
g Glass
v -0.5 1 1.5
v -0.75 1 1.5
v 0 2 1.25
v -0.25 2 1.25
v -0.75 1 1.5
v -0.75 1 -0.5
v -0.25 2 1.25
v -0.25 2 -0.25
v -0.75 1 -0.5
v -0.5 1 -0.5
v -0.25 2 -0.25
v 0 2 -0.25
v -0.5 1 -0.5
v -0.5 1 1.5
v 0 2 -0.25
v 0 2 1.25
v 0 2 1.25
v -0.25 2 1.25
v 0 2 -0.25
v -0.25 2 -0.25
v -0.5 1 -0.5
v -0.75 1 -0.5
v -0.5 1 1.5
v -0.75 1 1.5

vn 0 0.2425356 0.9701425
vn 0 0.2425356 0.9701425
vn 0 0.2425356 0.9701425
vn 0 0.2425356 0.9701425
vn -0.8944272 0.4472136 0
vn -0.8944272 0.4472136 0
vn -0.8944272 0.4472136 0
vn -0.8944272 0.4472136 0
vn 0 0.2425356 -0.9701425
vn 0 0.2425356 -0.9701425
vn 0 0.2425356 -0.9701425
vn 0 0.2425356 -0.9701425
vn 0.8944272 -0.4472136 0
vn 0.8944272 -0.4472136 0
vn 0.8944272 -0.4472136 0
vn 0.8944272 -0.4472136 0
vn 0 1 0
vn 0 1 0
vn 0 1 0
vn 0 1 0
vn 0 -1 0
vn 0 -1 0
vn 0 -1 0
vn 0 -1 0

vt 0.25 0
vt 0 0
vt 0.75 1.030777
vt 0.5 1.030777
vt 2 0
vt 0 0
vt 1.75 1.118034
vt 0.25 1.118034
vt 0.75 0
vt 0.5 0
vt 0.25 1.030777
vt 0 1.030777
vt 2 0
vt 0 0
vt 1.75 1.118034
vt 0.25 1.118034
vt 0 1.5
vt 0.25 1.5
vt 0 0
vt 0.25 0
vt 0.25 0
vt 0 0
vt 0.25 2
vt 0 2

usemtl Default
usemap Default
f 2/2/2 1/1/1 3/3/3
f 4/4/4 2/2/2 3/3/3
f 6/6/6 5/5/5 7/7/7
f 8/8/8 6/6/6 7/7/7
f 10/10/10 9/9/9 11/11/11
f 12/12/12 10/10/10 11/11/11
f 14/14/14 13/13/13 15/15/15
f 16/16/16 14/14/14 15/15/15
f 18/18/18 17/17/17 19/19/19
f 20/20/20 18/18/18 19/19/19
f 22/22/22 21/21/21 23/23/23
f 24/24/24 22/22/22 23/23/23
