mtllib ./FloorPit.mtl
g FloorPit
v 0 -5.5 -11
v 11 -5.5 -11
v 0 0 -10.875
v 10.875 0 -10.875
v 11 -5.5 -11
v 11 -5.5 0
v 10.875 0 -10.875
v 10.875 0 0
v 11 -5.5 11
v 0 -5.5 11
v 10.875 0 10.875
v 0 0 10.875
v 11 -5.5 0
v 11 -5.5 11
v 10.875 0 0
v 10.875 0 10.875
v 0 -5.5 11
v -11 -5.5 11
v 0 0 10.875
v -10.875 0 10.875
v -11 -5.5 11
v -11 -5.5 0
v -10.875 0 10.875
v -10.875 0 0
v -11 -5.5 0
v -11 -5.5 -11
v -10.875 0 0
v -10.875 0 -10.875
v -11 -5.5 -11
v 0 -5.5 -11
v -10.875 0 -10.875
v 0 0 -10.875
v 10 -0.5 -10
v 10 -0.5 0
v 11 -5.5 -11
v 11 -5.5 0
v 10 0.5 0
v 10 0.5 -10
v 10.875 0 0
v 10.875 0 -10.875
v 10 -0.5 0
v 10 -0.5 10
v 11 -5.5 0
v 11 -5.5 11
v 10 0.5 10
v 10 0.5 0
v 10.875 0 10.875
v 10.875 0 0
v 0 -0.5 -10
v 10 -0.5 -10
v 0 -5.5 -11
v 11 -5.5 -11
v 10 0.5 -10
v 0 0.5 -10
v 10.875 0 -10.875
v 0 0 -10.875
v -10 -0.5 -10
v 0 -0.5 -10
v -11 -5.5 -11
v 0 -5.5 -11
v 0 0.5 -10
v -10 0.5 -10
v 0 0 -10.875
v -10.875 0 -10.875
v -10 -0.5 0
v -10 -0.5 -10
v -11 -5.5 0
v -11 -5.5 -11
v -10 0.5 -10
v -10 0.5 0
v -10.875 0 -10.875
v -10.875 0 0
v -10 -0.5 10
v -10 -0.5 0
v -11 -5.5 11
v -11 -5.5 0
v -10 0.5 0
v -10 0.5 10
v -10.875 0 0
v -10.875 0 10.875
v 0 -0.5 10
v -10 -0.5 10
v 0 -5.5 11
v -11 -5.5 11
v -10 0.5 10
v 0 0.5 10
v -10.875 0 10.875
v 0 0 10.875
v 10 -0.5 10
v 0 -0.5 10
v 11 -5.5 11
v 0 -5.5 11
v 0 0.5 10
v 10 0.5 10
v 0 0 10.875
v 10.875 0 10.875
v 10 0.5 -10
v 10 0.5 0
v 5 0.5 -5
v 5 0.5 0
v 0 0.5 -10
v 10 0.5 -10
v 0 0.5 -5
v 5 0.5 -5
v 10 0.5 10
v 0 0.5 10
v 5 0.5 5
v 0 0.5 5
v 10 0.5 0
v 10 0.5 10
v 5 0.5 0
v 5 0.5 5
v 0 0.5 10
v -10 0.5 10
v 0 0.5 5
v -5 0.5 5
v -10 0.5 10
v -10 0.5 0
v -5 0.5 5
v -5 0.5 0
v -10 0.5 0
v -10 0.5 -10
v -5 0.5 0
v -5 0.5 -5
v -10 0.5 -10
v 0 0.5 -10
v -5 0.5 -5
v 0 0.5 -5
v 0 0.5 -5
v -5 0.5 -5
v 0 -5.5 -5
v -5 -5.5 -5
v 5 0.5 -5
v 0 0.5 -5
v 5 -5.5 -5
v 0 -5.5 -5
v 5 0.5 0
v 5 0.5 -5
v 5 -5.5 0
v 5 -5.5 -5
v 5 0.5 5
v 5 0.5 0
v 5 -5.5 5
v 5 -5.5 0
v 0 0.5 5
v 5 0.5 5
v 0 -5.5 5
v 5 -5.5 5
v -5 0.5 5
v 0 0.5 5
v -5 -5.5 5
v 0 -5.5 5
v -5 0.5 0
v -5 0.5 5
v -5 -5.5 0
v -5 -5.5 5
v -5 0.5 -5
v -5 0.5 0
v -5 -5.5 -5
v -5 -5.5 0

vn 0 0.02272141 -0.9997419
vn 0 0.0227214 -0.9997418
vn 0 0.0227214 -0.9997418
vn 0 0.02272141 -0.9997419
vn 0.9997419 0.02272141 0
vn 0.9997418 0.0227214 0
vn 0.9997418 0.0227214 0
vn 0.9997419 0.02272141 0
vn 0 0.02272141 0.9997419
vn 0 0.0227214 0.9997418
vn 0 0.0227214 0.9997418
vn 0 0.02272141 0.9997419
vn 0.9997419 0.02272141 0
vn 0.9997418 0.0227214 0
vn 0.9997418 0.0227214 0
vn 0.9997419 0.02272141 0
vn 0 0.02272141 0.9997419
vn 0 0.0227214 0.9997418
vn 0 0.0227214 0.9997418
vn 0 0.02272141 0.9997419
vn -0.9997419 0.02272141 0
vn -0.9997418 0.0227214 0
vn -0.9997418 0.0227214 0
vn -0.9997419 0.02272141 0
vn -0.9997419 0.02272141 0
vn -0.9997418 0.0227214 0
vn -0.9997418 0.0227214 0
vn -0.9997419 0.02272141 0
vn 0 0.02272141 -0.9997419
vn 0 0.0227214 -0.9997418
vn 0 0.0227214 -0.9997418
vn 0 0.02272141 -0.9997419
vn -0.9805807 -0.1961161 0
vn -0.9805807 -0.1961161 0
vn -0.9805807 -0.1961161 0
vn -0.9805807 -0.1961161 0
vn 0.496139 0.8682432 0
vn 0.4961389 0.8682431 0
vn 0.4961389 0.8682431 0
vn 0.4961389 0.8682431 0
vn -0.9805807 -0.1961161 0
vn -0.9805807 -0.1961161 0
vn -0.9805807 -0.1961161 0
vn -0.9805807 -0.1961161 0
vn 0.496139 0.8682432 0
vn 0.4961389 0.8682431 0
vn 0.4961389 0.8682431 0
vn 0.4961389 0.8682431 0
vn 0 -0.1961161 0.9805807
vn 0 -0.1961161 0.9805807
vn 0 -0.1961161 0.9805807
vn 0 -0.1961161 0.9805807
vn 0 0.8682432 -0.496139
vn 0 0.8682431 -0.4961389
vn 0 0.8682431 -0.4961389
vn 0 0.8682431 -0.4961389
vn 0 -0.1961161 0.9805807
vn 0 -0.1961161 0.9805807
vn 0 -0.1961161 0.9805807
vn 0 -0.1961161 0.9805807
vn 0 0.8682432 -0.496139
vn 0 0.8682431 -0.4961389
vn 0 0.8682431 -0.4961389
vn 0 0.8682431 -0.4961389
vn 0.9805807 -0.1961161 0
vn 0.9805807 -0.1961161 0
vn 0.9805807 -0.1961161 0
vn 0.9805807 -0.1961161 0
vn -0.496139 0.8682432 0
vn -0.4961389 0.8682431 0
vn -0.4961389 0.8682431 0
vn -0.4961389 0.8682431 0
vn 0.9805807 -0.1961161 0
vn 0.9805807 -0.1961161 0
vn 0.9805807 -0.1961161 0
vn 0.9805807 -0.1961161 0
vn -0.496139 0.8682432 0
vn -0.4961389 0.8682431 0
vn -0.4961389 0.8682431 0
vn -0.4961389 0.8682431 0
vn 0 -0.1961161 -0.9805807
vn 0 -0.1961161 -0.9805807
vn 0 -0.1961161 -0.9805807
vn 0 -0.1961161 -0.9805807
vn 0 0.8682432 0.496139
vn 0 0.8682431 0.4961389
vn 0 0.8682431 0.4961389
vn 0 0.8682431 0.4961389
vn 0 -0.1961161 -0.9805807
vn 0 -0.1961161 -0.9805807
vn 0 -0.1961161 -0.9805807
vn 0 -0.1961161 -0.9805807
vn 0 0.8682432 0.496139
vn 0 0.8682431 0.4961389
vn 0 0.8682431 0.4961389
vn 0 0.8682431 0.4961389
vn 0 1 0
vn 0 1 0
vn 0 1 0
vn 0 1 0
vn 0 1 0
vn 0 1 0
vn 0 1 0
vn 0 1 0
vn 0 1 0
vn 0 1 0
vn 0 1 0
vn 0 1 0
vn 0 1 0
vn 0 1 0
vn 0 1 0
vn 0 1 0
vn 0 1 0
vn 0 1 0
vn 0 1 0
vn 0 1 0
vn 0 1 0
vn 0 1 0
vn 0 1 0
vn 0 1 0
vn 0 1 0
vn 0 1 0
vn 0 1 0
vn 0 1 0
vn 0 1 0
vn 0 1 0
vn 0 1 0
vn 0 1 0
vn 0 0 1
vn 0 0 1
vn 0 0 1
vn 0 0 1
vn 0 0 1
vn 0 0 1
vn 0 0 1
vn 0 0 1
vn -1 0 0
vn -1 0 0
vn -1 0 0
vn -1 0 0
vn -1 0 0
vn -1 0 0
vn -1 0 0
vn -1 0 0
vn 0 0 -1
vn 0 0 -1
vn 0 0 -1
vn 0 0 -1
vn 0 0 -1
vn 0 0 -1
vn 0 0 -1
vn 0 0 -1
vn 1 0 0
vn 1 0 0
vn 1 0 0
vn 1 0 0
vn 1 0 0
vn 1 0 0
vn 1 0 0
vn 1 0 0

vt 11 -2.384186E-07
vt 0 -2.384186E-07
vt 11 5.50142
vt 0.125 5.50142
vt 11 -2.384186E-07
vt 0 -2.384186E-07
vt 10.875 5.50142
vt 0 5.50142
vt 11 -2.384186E-07
vt 0 -2.384186E-07
vt 10.875 5.50142
vt 0 5.50142
vt 11 -2.384186E-07
vt 0 -2.384186E-07
vt 11 5.50142
vt 0.125 5.50142
vt 11 -2.384186E-07
vt 0 -2.384186E-07
vt 11 5.50142
vt 0.125 5.50142
vt 11 -2.384186E-07
vt 0 -2.384186E-07
vt 10.875 5.50142
vt 0 5.50142
vt 11 -2.384186E-07
vt 0 -2.384186E-07
vt 11 5.50142
vt 0.125 5.50142
vt 11 -2.384186E-07
vt 0 -2.384186E-07
vt 10.875 5.50142
vt 0 5.50142
vt 1 5.09902
vt 11 5.09902
vt 0 0
vt 11 0
vt 1.007782 10.875
vt 1.007782 0.875
vt 0 10.875
vt 0 0
vt 0 5.09902
vt 10 5.09902
vt 0 0
vt 11 0
vt 1.007782 10
vt 1.007782 0
vt 0 10.875
vt 0 0
vt 0 5.09902
vt 10 5.09902
vt 0 0
vt 11 0
vt 0.875 1.007782
vt 10.875 1.007782
vt 0 0
vt 10.875 0
vt 1 5.09902
vt 11 5.09902
vt 0 0
vt 11 0
vt 0 1.007782
vt 10 1.007782
vt 0 0
vt 10.875 0
vt 0 5.09902
vt 10 5.09902
vt 0 0
vt 11 0
vt 0 0.875
vt 0 10.875
vt 1.007782 0
vt 1.007782 10.875
vt 1 5.09902
vt 11 5.09902
vt 0 0
vt 11 0
vt 0 0
vt 0 10
vt 1.007782 0
vt 1.007782 10.875
vt 0 5.09902
vt 10 5.09902
vt 0 0
vt 11 0
vt 10 0
vt 0 0
vt 10.875 1.007782
vt 0 1.007782
vt 1 5.09902
vt 11 5.09902
vt 0 0
vt 11 0
vt 10.875 0
vt 0.875 0
vt 10.875 1.007782
vt 0 1.007782
vt 0 0
vt 0 10
vt 5 5
vt 5 10
vt 10 0
vt 0 0
vt 10 5
vt 5 5
vt 0 5
vt 10 5
vt 5 0
vt 10 0
vt 0 0
vt 0 10
vt 5 0
vt 5 5
vt 0 5
vt 10 5
vt 0 0
vt 5 0
vt 5 10
vt 5 0
vt 0 5
vt 0 0
vt 5 10
vt 5 0
vt 0 10
vt 0 5
vt 10 0
vt 0 0
vt 5 5
vt 0 5
vt 5 6
vt 0 6
vt 5 0
vt 0 0
vt 5 6
vt 0 6
vt 5 0
vt 0 0
vt 5 6
vt 0 6
vt 5 0
vt 0 0
vt 5 6
vt 0 6
vt 5 0
vt 0 0
vt 5 6
vt 0 6
vt 5 0
vt 0 0
vt 5 6
vt 0 6
vt 5 0
vt 0 0
vt 5 6
vt 0 6
vt 5 0
vt 0 0
vt 5 6
vt 0 6
vt 5 0
vt 0 0

usemtl Default
usemap Default
f 2/2/2 1/1/1 3/3/3
f 4/4/4 2/2/2 3/3/3
f 6/6/6 5/5/5 7/7/7
f 8/8/8 6/6/6 7/7/7
f 10/10/10 9/9/9 11/11/11
f 12/12/12 10/10/10 11/11/11
f 14/14/14 13/13/13 15/15/15
f 16/16/16 14/14/14 15/15/15
f 18/18/18 17/17/17 19/19/19
f 20/20/20 18/18/18 19/19/19
f 22/22/22 21/21/21 23/23/23
f 24/24/24 22/22/22 23/23/23
f 26/26/26 25/25/25 27/27/27
f 28/28/28 26/26/26 27/27/27
f 30/30/30 29/29/29 31/31/31
f 32/32/32 30/30/30 31/31/31
f 34/34/34 33/33/33 35/35/35
f 36/36/36 34/34/34 35/35/35
f 38/38/38 37/37/37 39/39/39
f 40/40/40 38/38/38 39/39/39
f 42/42/42 41/41/41 43/43/43
f 44/44/44 42/42/42 43/43/43
f 46/46/46 45/45/45 47/47/47
f 48/48/48 46/46/46 47/47/47
f 50/50/50 49/49/49 51/51/51
f 52/52/52 50/50/50 51/51/51
f 54/54/54 53/53/53 55/55/55
f 56/56/56 54/54/54 55/55/55
f 58/58/58 57/57/57 59/59/59
f 60/60/60 58/58/58 59/59/59
f 62/62/62 61/61/61 63/63/63
f 64/64/64 62/62/62 63/63/63
f 66/66/66 65/65/65 67/67/67
f 68/68/68 66/66/66 67/67/67
f 70/70/70 69/69/69 71/71/71
f 72/72/72 70/70/70 71/71/71
f 74/74/74 73/73/73 75/75/75
f 76/76/76 74/74/74 75/75/75
f 78/78/78 77/77/77 79/79/79
f 80/80/80 78/78/78 79/79/79
f 82/82/82 81/81/81 83/83/83
f 84/84/84 82/82/82 83/83/83
f 86/86/86 85/85/85 87/87/87
f 88/88/88 86/86/86 87/87/87
f 90/90/90 89/89/89 91/91/91
f 92/92/92 90/90/90 91/91/91
f 94/94/94 93/93/93 95/95/95
f 96/96/96 94/94/94 95/95/95
f 98/98/98 97/97/97 99/99/99
f 100/100/100 98/98/98 99/99/99
f 102/102/102 101/101/101 103/103/103
f 104/104/104 102/102/102 103/103/103
f 106/106/106 105/105/105 107/107/107
f 108/108/108 106/106/106 107/107/107
f 110/110/110 109/109/109 111/111/111
f 112/112/112 110/110/110 111/111/111
f 114/114/114 113/113/113 115/115/115
f 116/116/116 114/114/114 115/115/115
f 118/118/118 117/117/117 119/119/119
f 120/120/120 118/118/118 119/119/119
f 122/122/122 121/121/121 123/123/123
f 124/124/124 122/122/122 123/123/123
f 126/126/126 125/125/125 127/127/127
f 128/128/128 126/126/126 127/127/127
f 130/130/130 131/131/131 129/129/129
f 132/132/132 131/131/131 130/130/130
f 134/134/134 135/135/135 133/133/133
f 136/136/136 135/135/135 134/134/134
f 138/138/138 139/139/139 137/137/137
f 140/140/140 139/139/139 138/138/138
f 142/142/142 143/143/143 141/141/141
f 144/144/144 143/143/143 142/142/142
f 146/146/146 147/147/147 145/145/145
f 148/148/148 147/147/147 146/146/146
f 150/150/150 151/151/151 149/149/149
f 152/152/152 151/151/151 150/150/150
f 154/154/154 155/155/155 153/153/153
f 156/156/156 155/155/155 154/154/154
f 158/158/158 159/159/159 157/157/157
f 160/160/160 159/159/159 158/158/158
