# XSI Wavefront OBJ Export v3.0
# File Created: Thu Oct 02 17:34:05 2014
# XSI Version: 10.1.62.0
o cylinder
# Hierarchy (from self to top father)
g cylinder

#begin 18 vertices
v 0.000000 -0.000000 -5.000000
v 0.000000 0.000000 0.000000
v -1.000000 -0.000000 -5.000000
v -1.000000 0.000000 -0.000000
v -0.707107 -0.707107 -5.000000
v -0.707107 -0.707107 0.000000
v -0.000000 -1.000000 -5.000000
v -0.000000 -1.000000 0.000000
v 0.707107 -0.707107 -5.000000
v 0.707107 -0.707107 0.000000
v 1.000000 -0.000000 -5.000000
v 1.000000 -0.000000 0.000000
v 0.707107 0.707107 -5.000000
v 0.707107 0.707107 -0.000000
v 0.000000 1.000000 -5.000000
v 0.000000 1.000000 -0.000000
v -0.707107 0.707107 -5.000000
v -0.707107 0.707107 -0.000000
#end 18 vertices

#begin 80 normals
vn 0.000000 0.000000 -1.000000
vn 0.000000 0.000000 -1.000000
vn 0.000000 0.000000 -1.000000
vn -1.000000 0.000000 0.000000
vn -0.707107 -0.707107 0.000000
vn -0.707107 -0.707107 0.000000
vn -1.000000 0.000000 0.000000
vn 0.000000 0.000000 1.000000
vn -0.000000 0.000000 1.000000
vn -0.000000 0.000000 1.000000
vn 0.000000 0.000000 -1.000000
vn 0.000000 0.000000 -1.000000
vn 0.000000 0.000000 -1.000000
vn -0.707107 -0.707107 0.000000
vn 0.000000 -1.000000 0.000000
vn 0.000000 -1.000000 0.000000
vn -0.707107 -0.707107 0.000000
vn -0.000000 0.000000 1.000000
vn -0.000000 0.000000 1.000000
vn -0.000000 0.000000 1.000000
vn 0.000000 0.000000 -1.000000
vn 0.000000 0.000000 -1.000000
vn 0.000000 0.000000 -1.000000
vn 0.000000 -1.000000 0.000000
vn 0.707107 -0.707107 0.000000
vn 0.707107 -0.707107 0.000000
vn 0.000000 -1.000000 0.000000
vn -0.000000 0.000000 1.000000
vn -0.000000 0.000000 1.000000
vn -0.000000 0.000000 1.000000
vn 0.000000 0.000000 -1.000000
vn 0.000000 0.000000 -1.000000
vn 0.000000 0.000000 -1.000000
vn 0.707107 -0.707107 0.000000
vn 1.000000 0.000000 0.000000
vn 1.000000 0.000000 0.000000
vn 0.707107 -0.707107 0.000000
vn -0.000000 0.000000 1.000000
vn 0.000000 0.000000 1.000000
vn -0.000000 0.000000 1.000000
vn 0.000000 0.000000 -1.000000
vn 0.000000 0.000000 -1.000000
vn 0.000000 0.000000 -1.000000
vn 1.000000 0.000000 0.000000
vn 0.707107 0.707107 -0.000000
vn 0.707107 0.707107 -0.000000
vn 1.000000 0.000000 0.000000
vn 0.000000 0.000000 1.000000
vn 0.000000 0.000000 1.000000
vn -0.000000 0.000000 1.000000
vn 0.000000 0.000000 -1.000000
vn 0.000000 0.000000 -1.000000
vn 0.000000 0.000000 -1.000000
vn 0.707107 0.707107 -0.000000
vn 0.000000 1.000000 -0.000000
vn 0.000000 1.000000 -0.000000
vn 0.707107 0.707107 -0.000000
vn 0.000000 0.000000 1.000000
vn 0.000000 0.000000 1.000000
vn -0.000000 0.000000 1.000000
vn 0.000000 0.000000 -1.000000
vn 0.000000 0.000000 -1.000000
vn 0.000000 0.000000 -1.000000
vn 0.000000 1.000000 -0.000000
vn -0.707107 0.707107 -0.000000
vn -0.707107 0.707107 -0.000000
vn 0.000000 1.000000 -0.000000
vn 0.000000 0.000000 1.000000
vn 0.000000 0.000000 1.000000
vn -0.000000 0.000000 1.000000
vn 0.000000 0.000000 -1.000000
vn 0.000000 0.000000 -1.000000
vn 0.000000 0.000000 -1.000000
vn -0.707107 0.707107 -0.000000
vn -1.000000 0.000000 0.000000
vn -1.000000 0.000000 0.000000
vn -0.707107 0.707107 -0.000000
vn 0.000000 0.000000 1.000000
vn 0.000000 0.000000 1.000000
vn -0.000000 0.000000 1.000000
#end 80 vertex normals

#begin 24 faces
f 5//1 3//2 1//3 
f 3//4 5//5 6//6 4//7 
f 4//8 6//9 2//10 
f 7//11 5//12 1//13 
f 5//14 7//15 8//16 6//17 
f 6//18 8//19 2//20 
f 9//21 7//22 1//23 
f 7//24 9//25 10//26 8//27 
f 8//28 10//29 2//30 
f 11//31 9//32 1//33 
f 9//34 11//35 12//36 10//37 
f 10//38 12//39 2//40 
f 13//41 11//42 1//43 
f 11//44 13//45 14//46 12//47 
f 12//48 14//49 2//50 
f 15//51 13//52 1//53 
f 13//54 15//55 16//56 14//57 
f 14//58 16//59 2//60 
f 17//61 15//62 1//63 
f 15//64 17//65 18//66 16//67 
f 16//68 18//69 2//70 
f 3//71 17//72 1//73 
f 17//74 3//75 4//76 18//77 
f 18//78 4//79 2//80 
#end 24 faces
