mtllib ./Wheel.mtl
g Wheel
v -1.75 -0.125 -0.625
v -1.75 -0.125 -0.25
v -1.683013 -0.375 -0.6249999
v -1.683013 -0.3749999 -0.25
v -1.683013 -0.375 -0.6249999
v -1.683013 -0.3749999 -0.25
v -1.5 -0.5580127 -0.6249999
v -1.5 -0.5580127 -0.25
v -1.5 -0.5580127 -0.6249999
v -1.5 -0.5580127 -0.25
v -1.25 -0.625 -0.6249999
v -1.25 -0.6249999 -0.25
v -1.25 -0.625 -0.6249999
v -1.25 -0.6249999 -0.25
v -1 -0.5580127 -0.6249999
v -1 -0.5580126 -0.25
v -1 -0.5580127 -0.6249999
v -1 -0.5580126 -0.25
v -0.8169873 -0.375 -0.6249999
v -0.8169873 -0.375 -0.25
v -0.8169873 -0.375 -0.6249999
v -0.8169873 -0.375 -0.25
v -0.75 -0.125 -0.625
v -0.75 -0.1249999 -0.25
v -0.75 -0.125 -0.625
v -0.75 -0.1249999 -0.25
v -0.8169873 0.1249999 -0.625
v -0.8169873 0.125 -0.25
v -0.8169873 0.1249999 -0.625
v -0.8169873 0.125 -0.25
v -1 0.3080127 -0.625
v -1 0.3080127 -0.2500001
v -1 0.3080127 -0.625
v -1 0.3080127 -0.2500001
v -1.25 0.3749999 -0.625
v -1.25 0.375 -0.2500001
v -1.25 0.3749999 -0.625
v -1.25 0.375 -0.2500001
v -1.5 0.3080127 -0.625
v -1.5 0.3080127 -0.2500001
v -1.5 0.3080127 -0.625
v -1.5 0.3080127 -0.2500001
v -1.683013 0.125 -0.625
v -1.683013 0.1250001 -0.2500001
v -1.683013 0.125 -0.625
v -1.683013 0.1250001 -0.2500001
v -1.75 -0.125 -0.625
v -1.75 -0.125 -0.25
v -1.75 -0.125 -0.625
v -1.25 -0.125 -0.625
v -1.683013 -0.375 -0.6249999
v -1.75 -0.125 -0.25
v -1.25 -0.125 -0.25
v -1.683013 -0.3749999 -0.25
v -1.683013 -0.375 -0.6249999
v -1.25 -0.125 -0.625
v -1.5 -0.5580127 -0.6249999
v -1.683013 -0.3749999 -0.25
v -1.25 -0.125 -0.25
v -1.5 -0.5580127 -0.25
v -1.5 -0.5580127 -0.6249999
v -1.25 -0.125 -0.625
v -1.25 -0.625 -0.6249999
v -1.5 -0.5580127 -0.25
v -1.25 -0.125 -0.25
v -1.25 -0.6249999 -0.25
v -1.25 -0.625 -0.6249999
v -1.25 -0.125 -0.625
v -1 -0.5580127 -0.6249999
v -1.25 -0.6249999 -0.25
v -1.25 -0.125 -0.25
v -1 -0.5580126 -0.25
v -1 -0.5580127 -0.6249999
v -1.25 -0.125 -0.625
v -0.8169873 -0.375 -0.6249999
v -1 -0.5580126 -0.25
v -1.25 -0.125 -0.25
v -0.8169873 -0.375 -0.25
v -0.8169873 -0.375 -0.6249999
v -1.25 -0.125 -0.625
v -0.75 -0.125 -0.625
v -0.8169873 -0.375 -0.25
v -1.25 -0.125 -0.25
v -0.75 -0.1249999 -0.25
v -0.75 -0.125 -0.625
v -1.25 -0.125 -0.625
v -0.8169873 0.1249999 -0.625
v -0.75 -0.1249999 -0.25
v -1.25 -0.125 -0.25
v -0.8169873 0.125 -0.25
v -0.8169873 0.1249999 -0.625
v -1.25 -0.125 -0.625
v -1 0.3080127 -0.625
v -0.8169873 0.125 -0.25
v -1.25 -0.125 -0.25
v -1 0.3080127 -0.2500001
v -1 0.3080127 -0.625
v -1.25 -0.125 -0.625
v -1.25 0.3749999 -0.625
v -1 0.3080127 -0.2500001
v -1.25 -0.125 -0.25
v -1.25 0.375 -0.2500001
v -1.25 0.3749999 -0.625
v -1.25 -0.125 -0.625
v -1.5 0.3080127 -0.625
v -1.25 0.375 -0.2500001
v -1.25 -0.125 -0.25
v -1.5 0.3080127 -0.2500001
v -1.5 0.3080127 -0.625
v -1.25 -0.125 -0.625
v -1.683013 0.125 -0.625
v -1.5 0.3080127 -0.2500001
v -1.25 -0.125 -0.25
v -1.683013 0.1250001 -0.2500001
v -1.683013 0.125 -0.625
v -1.25 -0.125 -0.625
v -1.75 -0.125 -0.625
v -1.683013 0.1250001 -0.2500001
v -1.25 -0.125 -0.25
v -1.75 -0.125 -0.25

vn -0.9659258 -0.2588191 2.05691E-08
vn -0.9659258 -0.2588191 3.085365E-08
vn -0.9659258 -0.2588191 3.085365E-08
vn -0.9659259 -0.2588191 4.11382E-08
vn -0.7071068 -0.7071068 1.123916E-07
vn -0.7071068 -0.7071068 1.123916E-07
vn -0.7071068 -0.7071068 1.123916E-07
vn -0.7071068 -0.7071068 1.123916E-07
vn -0.258819 -0.9659258 1.535298E-07
vn -0.258819 -0.9659258 1.535298E-07
vn -0.258819 -0.9659258 1.535298E-07
vn -0.258819 -0.9659258 1.535298E-07
vn 0.2588191 -0.9659258 1.535298E-07
vn 0.2588191 -0.9659258 1.535298E-07
vn 0.2588191 -0.9659258 1.535298E-07
vn 0.2588191 -0.9659258 1.535298E-07
vn 0.7071068 -0.7071068 1.123916E-07
vn 0.7071068 -0.7071068 8.429372E-08
vn 0.7071068 -0.7071068 8.429372E-08
vn 0.7071067 -0.7071068 5.619581E-08
vn 0.9659258 -0.258819 2.056909E-08
vn 0.9659259 -0.258819 3.085364E-08
vn 0.9659259 -0.258819 3.085364E-08
vn 0.9659259 -0.258819 4.113818E-08
vn 0.9659259 0.2588191 -4.11382E-08
vn 0.9659259 0.2588191 -4.11382E-08
vn 0.9659259 0.2588191 -4.11382E-08
vn 0.9659259 0.2588191 -4.11382E-08
vn 0.7071068 0.7071068 -1.123916E-07
vn 0.7071068 0.7071068 -1.123916E-07
vn 0.7071068 0.7071068 -1.123916E-07
vn 0.7071068 0.7071068 -1.123916E-07
vn 0.258819 0.9659258 -1.535298E-07
vn 0.258819 0.9659258 -1.535298E-07
vn 0.258819 0.9659258 -1.535298E-07
vn 0.258819 0.9659258 -1.535298E-07
vn -0.258819 0.9659258 -1.535298E-07
vn -0.258819 0.9659258 -1.535298E-07
vn -0.258819 0.9659258 -1.535298E-07
vn -0.258819 0.9659258 -1.535298E-07
vn -0.7071067 0.7071069 -1.123916E-07
vn -0.7071066 0.7071069 -1.685874E-07
vn -0.7071066 0.7071069 -1.685874E-07
vn -0.7071066 0.707107 -2.247833E-07
vn -0.9659258 0.2588191 -8.22764E-08
vn -0.9659259 0.2588191 -5.142275E-08
vn -0.9659259 0.2588191 -5.142275E-08
vn -0.9659258 0.2588191 -2.056909E-08
vn 0 -1.192093E-07 -1
vn 0 -1.192093E-07 -1
vn 0 -1.192093E-07 -1
vn 0 1.192093E-07 1
vn 0 1.192093E-07 1
vn 0 1.192093E-07 1
vn -4.363363E-08 -4.363363E-08 -1
vn -4.363363E-08 -4.363363E-08 -1
vn -4.363363E-08 -4.363363E-08 -1
vn 4.363363E-08 4.363363E-08 1
vn 4.363363E-08 4.363363E-08 1
vn 4.363363E-08 4.363363E-08 1
vn -1.597101E-08 -5.960465E-08 -1
vn -1.597101E-08 -5.960465E-08 -1
vn -1.597101E-08 -5.960465E-08 -1
vn 1.597101E-08 5.960465E-08 1
vn 1.597101E-08 5.960465E-08 1
vn 1.597101E-08 5.960465E-08 1
vn 1.597102E-08 -5.960465E-08 -1
vn 1.597102E-08 -5.960465E-08 -1
vn 1.597102E-08 -5.960465E-08 -1
vn -1.597102E-08 5.960465E-08 1
vn -1.597102E-08 5.960465E-08 1
vn -1.597102E-08 5.960465E-08 1
vn 4.363363E-08 -4.363363E-08 -1
vn 4.363363E-08 -4.363363E-08 -1
vn 4.363363E-08 -4.363363E-08 -1
vn -4.363363E-08 4.363363E-08 1
vn -4.363363E-08 4.363363E-08 1
vn -4.363363E-08 4.363363E-08 1
vn 7.105427E-15 -1.192093E-07 -1
vn 7.105427E-15 -1.192093E-07 -1
vn 7.105427E-15 -1.192093E-07 -1
vn -1.421085E-14 1.192093E-07 1
vn -1.421085E-14 1.192093E-07 1
vn -1.421085E-14 1.192093E-07 1
vn 0 0 -1
vn 0 0 -1
vn 0 0 -1
vn 0 0 1
vn 0 0 1
vn 0 0 1
vn 5.960463E-08 -1.032383E-07 -1
vn 5.960463E-08 -1.032383E-07 -1
vn 5.960463E-08 -1.032383E-07 -1
vn -5.960464E-08 1.032383E-07 1
vn -5.960464E-08 1.032383E-07 1
vn -5.960464E-08 1.032383E-07 1
vn -1.597101E-08 -5.960464E-08 -1
vn -1.597101E-08 -5.960464E-08 -1
vn -1.597101E-08 -5.960464E-08 -1
vn 1.597101E-08 5.960464E-08 1
vn 1.597101E-08 5.960464E-08 1
vn 1.597101E-08 5.960464E-08 1
vn 1.597101E-08 -5.960464E-08 -1
vn 1.597101E-08 -5.960464E-08 -1
vn 1.597101E-08 -5.960464E-08 -1
vn -1.597101E-08 5.960464E-08 1
vn -1.597101E-08 5.960464E-08 1
vn -1.597101E-08 5.960464E-08 1
vn 4.363362E-08 -4.363363E-08 -1
vn 4.363362E-08 -4.363363E-08 -1
vn 4.363362E-08 -4.363363E-08 -1
vn -4.363362E-08 4.363364E-08 1
vn -4.363362E-08 4.363364E-08 1
vn -4.363362E-08 4.363364E-08 1
vn 0 -1.192093E-07 -1
vn 0 -1.192093E-07 -1
vn 0 -1.192093E-07 -1
vn 0 1.192092E-07 1
vn 0 1.192092E-07 1
vn 0 1.192092E-07 1

vt 0 0.258819
vt 0.3749999 0.258819
vt 2.980232E-08 0
vt 0.375 5.960464E-08
vt 0 0.2588191
vt 0.3749999 0.2588192
vt 2.980232E-08 0
vt 0.375 8.940697E-08
vt 1.490116E-08 0
vt 0 0.3749999
vt 0.258819 0
vt 0.258819 0.3749999
vt 0 0
vt 1.490116E-08 0.3749999
vt 0.258819 0
vt 0.2588191 0.3749999
vt 1.490116E-08 0
vt 5.960464E-08 0.3749999
vt 0.258819 0
vt 0.258819 0.3749999
vt 0.3749999 0
vt 0 2.980232E-08
vt 0.375 0.2588191
vt 2.980232E-08 0.2588191
vt 0.3749999 -1.490116E-08
vt 0 4.470348E-08
vt 0.3749999 0.258819
vt 0 0.258819
vt 0 2.980232E-08
vt 2.980232E-08 0.375
vt 0.2588191 0
vt 0.2588191 0.3749999
vt 1.490116E-08 0
vt 2.980232E-08 0.3749999
vt 0.258819 0
vt 0.258819 0.3749999
vt 1.490116E-08 0
vt 0 0.3749999
vt 0.258819 0
vt 0.258819 0.3749999
vt 2.980232E-08 0
vt 0 0.3749999
vt 0.2588191 0
vt 0.258819 0.3749999
vt 0 0.2588191
vt 0.3749999 0.2588192
vt 4.470348E-08 0
vt 0.375 2.980232E-08
vt 0.5 0.25
vt 0 0.25
vt 0.4330127 0
vt 0 0.2499999
vt 0.5 0.2499999
vt 0.06698731 0
vt 0.4330127 0.1830127
vt -1.490116E-08 0.4330127
vt 0.25 0
vt 0 0.1830127
vt 0.4330127 0.4330127
vt 0.1830127 0
vt 0.25 0.06698728
vt 2.235174E-08 0.5
vt 0 0
vt 0 0.06698728
vt 0.25 0.4999999
vt 0.25 0
vt 0.25 0
vt 0.25 0.5
vt 0 0.06698731
vt 2.235174E-08 0
vt 0 0.4999999
vt 0.25 0.06698731
vt 0.1830127 0
vt 0.4330127 0.4330127
vt 0 0.1830127
vt 0.25 0
vt 1.490116E-08 0.4330126
vt 0.4330127 0.1830126
vt 0.06698731 0
vt 0.5 0.25
vt 0 0.25
vt 0.4330127 0
vt 0 0.25
vt 0.5 0.2500001
vt 0 2.980232E-08
vt 0.5 0
vt 0.06698731 0.25
vt 0.5 5.960464E-08
vt 0 0
vt 0.4330127 0.25
vt 0 0.25
vt 0.4330127 -1.490116E-08
vt 0.1830128 0.4330127
vt 0.4330127 0.25
vt 1.490116E-08 1.490116E-08
vt 0.25 0.4330127
vt 0 0.4330127
vt 0.25 1.490116E-08
vt 0.25 0.5
vt 0.25 0.4330127
vt 1.490116E-08 0
vt 7.450581E-09 0.5
vt 7.450581E-09 0.5
vt 0 1.490116E-08
vt 0.25 0.4330127
vt 0.25 0.5
vt 0.25 0
vt 0 0.4330127
vt 0.25 0.4330127
vt 1.490116E-08 1.490116E-08
vt 0.4330127 0.25
vt 0.1830127 0.4330127
vt 0.4330127 -1.490116E-08
vt 0 0.2500001
vt 0.4330127 0.25
vt 0 -1.490116E-08
vt 0.5 -1.490116E-08
vt 0.06698734 0.2500001
vt 0.5 1.490116E-08
vt 0 1.490116E-08

usemtl Default
usemap Default
f 2/2/2 1/1/1 3/3/3
f 4/4/4 2/2/2 3/3/3
f 6/6/6 5/5/5 7/7/7
f 8/8/8 6/6/6 7/7/7
f 10/10/10 9/9/9 11/11/11
f 12/12/12 10/10/10 11/11/11
f 14/14/14 13/13/13 15/15/15
f 16/16/16 14/14/14 15/15/15
f 18/18/18 17/17/17 19/19/19
f 20/20/20 18/18/18 19/19/19
f 22/22/22 21/21/21 23/23/23
f 24/24/24 22/22/22 23/23/23
f 26/26/26 25/25/25 27/27/27
f 28/28/28 26/26/26 27/27/27
f 30/30/30 29/29/29 31/31/31
f 32/32/32 30/30/30 31/31/31
f 34/34/34 33/33/33 35/35/35
f 36/36/36 34/34/34 35/35/35
f 38/38/38 37/37/37 39/39/39
f 40/40/40 38/38/38 39/39/39
f 42/42/42 41/41/41 43/43/43
f 44/44/44 42/42/42 43/43/43
f 46/46/46 45/45/45 47/47/47
f 48/48/48 46/46/46 47/47/47
f 50/50/50 51/51/51 49/49/49
f 56/56/56 57/57/57 55/55/55
f 62/62/62 63/63/63 61/61/61
f 68/68/68 69/69/69 67/67/67
f 74/74/74 75/75/75 73/73/73
f 80/80/80 81/81/81 79/79/79
f 86/86/86 87/87/87 85/85/85
f 92/92/92 93/93/93 91/91/91
f 98/98/98 99/99/99 97/97/97
f 104/104/104 105/105/105 103/103/103
f 110/110/110 111/111/111 109/109/109
f 116/116/116 117/117/117 115/115/115
f 53/53/53 52/52/52 54/54/54
f 59/59/59 58/58/58 60/60/60
f 65/65/65 64/64/64 66/66/66
f 71/71/71 70/70/70 72/72/72
f 77/77/77 76/76/76 78/78/78
f 83/83/83 82/82/82 84/84/84
f 89/89/89 88/88/88 90/90/90
f 95/95/95 94/94/94 96/96/96
f 101/101/101 100/100/100 102/102/102
f 107/107/107 106/106/106 108/108/108
f 113/113/113 112/112/112 114/114/114
f 119/119/119 118/118/118 120/120/120
