mtllib ./HoverPlatform.mtl
g HoverPlatform
v -23 6.25 18.5
v -28 6.25 18.5
v -23 6.5 18.5
v -28 6.5 18.5
v -28 6.25 18.5
v -28 6.25 13.5
v -28 6.5 18.5
v -28 6.5 13.5
v -28 6.25 13.5
v -23 6.25 13.5
v -28 6.5 13.5
v -23 6.5 13.5
v -23 6.25 13.5
v -23 6.25 18.5
v -23 6.5 13.5
v -23 6.5 18.5
v -23 6.5 18.5
v -28 6.5 18.5
v -23 6.5 13.5
v -28 6.5 13.5
v -23.25 6 13.75
v -27.75 6 13.75
v -23.25 6 18.25
v -27.75 6 18.25
v -23 6.25 13.5
v -28 6.25 13.5
v -23.25 6 13.75
v -27.75 6 13.75
v -23 6.25 18.5
v -23 6.25 13.5
v -23.25 6 18.25
v -23.25 6 13.75
v -28 6.25 13.5
v -28 6.25 18.5
v -27.75 6 13.75
v -27.75 6 18.25
v -28 6.25 18.5
v -23 6.25 18.5
v -27.75 6 18.25
v -23.25 6 18.25

vn 0 0 1
vn 0 0 1
vn 0 0 1
vn 0 0 1
vn -1 0 0
vn -1 0 0
vn -1 0 0
vn -1 0 0
vn 0 0 -1
vn 0 0 -1
vn 0 0 -1
vn 0 0 -1
vn 1 0 0
vn 1 0 0
vn 1 0 0
vn 1 0 0
vn 0 1 0
vn 0 1 0
vn 0 1 0
vn 0 1 0
vn 0 -1 0
vn 0 -1 0
vn 0 -1 0
vn 0 -1 0
vn 0 -0.7071068 -0.7071068
vn 0 -0.7071068 -0.7071068
vn 0 -0.7071068 -0.7071068
vn 0 -0.7071067 -0.7071067
vn 0.7071068 -0.7071068 0
vn 0.7071068 -0.7071068 0
vn 0.7071068 -0.7071068 0
vn 0.7071067 -0.7071067 0
vn -0.7071068 -0.7071068 0
vn -0.7071068 -0.7071068 0
vn -0.7071068 -0.7071068 0
vn -0.7071067 -0.7071067 0
vn 0 -0.7071068 0.7071068
vn 0 -0.7071068 0.7071068
vn 0 -0.7071068 0.7071068
vn 0 -0.7071067 0.7071067

vt 5 0
vt 0 0
vt 5 0.25
vt 0 0.25
vt 5 0
vt 0 0
vt 5 0.25
vt 0 0.25
vt 5 0
vt 0 0
vt 5 0.25
vt 0 0.25
vt 5 0
vt 0 0
vt 5 0.25
vt 0 0.25
vt 0 5
vt 5 5
vt 0 0
vt 5 0
vt 4.5 0
vt 0 0
vt 4.5 4.5
vt 0 4.5
vt 0 0.3535534
vt 5 0.3535534
vt 0.25 0
vt 4.75 0
vt 0.3535534 5
vt 0.3535534 0
vt 0 4.75
vt 0 0.25
vt -1.192093E-07 0
vt -1.192093E-07 5
vt 0.3535533 0.25
vt 0.3535533 4.75
vt 0 0.3535534
vt 5 0.3535534
vt 0.25 0
vt 4.75 0

usemtl Default
usemap Default
f 2/2/2 1/1/1 3/3/3
f 4/4/4 2/2/2 3/3/3
f 6/6/6 5/5/5 7/7/7
f 8/8/8 6/6/6 7/7/7
f 10/10/10 9/9/9 11/11/11
f 12/12/12 10/10/10 11/11/11
f 14/14/14 13/13/13 15/15/15
f 16/16/16 14/14/14 15/15/15
f 18/18/18 17/17/17 19/19/19
f 20/20/20 18/18/18 19/19/19
f 22/22/22 21/21/21 23/23/23
f 24/24/24 22/22/22 23/23/23
f 26/26/26 25/25/25 27/27/27
f 28/28/28 26/26/26 27/27/27
f 30/30/30 29/29/29 31/31/31
f 32/32/32 30/30/30 31/31/31
f 34/34/34 33/33/33 35/35/35
f 36/36/36 34/34/34 35/35/35
f 38/38/38 37/37/37 39/39/39
f 40/40/40 38/38/38 39/39/39
