mtllib ./CarTrap.mtl
g CarTrap
v -0.25 0 -0.25
v -0.75 0 -0.25
v -0.25 1 -0.25
v -0.75 1 -0.25
v -6 0 -0.375
v -6 0 -0.625
v -6 1 -0.375
v -6 1 -0.625
v -0.75 0 -0.75
v -0.25 0 -0.75
v -0.75 1 -0.75
v -0.25 1 -0.75
v 5 0 -0.625
v 5 0 -0.375
v 5 1 -0.625
v 5 1 -0.375
v -0.25 1 -0.25
v -0.75 1 -0.25
v -0.25 1 -0.75
v -0.75 1 -0.75
v -0.25 0 -0.75
v -0.75 0 -0.75
v -0.25 0 -0.25
v -0.75 0 -0.25
v -0.75 0 -0.25
v -0.75 0 -0.75
v -1 0 -0.375
v -1 0 -0.625
v -0.75 1 -0.25
v -0.75 0 -0.25
v -1 1 -0.375
v -1 0 -0.375
v -0.75 0 -0.75
v -0.75 1 -0.75
v -1 0 -0.625
v -1 1 -0.625
v -0.75 1 -0.75
v -0.75 1 -0.25
v -1 1 -0.625
v -1 1 -0.375
v -0.25 0 -0.75
v -0.25 0 -0.25
v 0 0 -0.625
v 0 0 -0.375
v -0.25 1 -0.75
v -0.25 0 -0.75
v 0 1 -0.625
v 0 0 -0.625
v -0.25 0 -0.25
v -0.25 1 -0.25
v 0 0 -0.375
v 0 1 -0.375
v -0.25 1 -0.25
v -0.25 1 -0.75
v 0 1 -0.375
v 0 1 -0.625
v 0 0 -0.625
v 0 0 -0.375
v 5 0 -0.625
v 5 0 -0.375
v 0 1 -0.625
v 0 0 -0.625
v 5 1 -0.625
v 5 0 -0.625
v 0 0 -0.375
v 0 1 -0.375
v 5 0 -0.375
v 5 1 -0.375
v 0 1 -0.375
v 0 1 -0.625
v 5 1 -0.375
v 5 1 -0.625
v -1 0 -0.375
v -1 0 -0.625
v -6 0 -0.375
v -6 0 -0.625
v -1 1 -0.375
v -1 0 -0.375
v -6 1 -0.375
v -6 0 -0.375
v -1 0 -0.625
v -1 1 -0.625
v -6 0 -0.625
v -6 1 -0.625
v -1 1 -0.625
v -1 1 -0.375
v -6 1 -0.625
v -6 1 -0.375

vn 0 0 1
vn 0 0 1
vn 0 0 1
vn 0 0 1
vn -1 0 0
vn -1 0 0
vn -1 0 0
vn -1 0 0
vn 0 0 -1
vn 0 0 -1
vn 0 0 -1
vn 0 0 -1
vn 1 0 0
vn 1 0 0
vn 1 0 0
vn 1 0 0
vn 0 1 0
vn 0 1 0
vn 0 1 0
vn 0 1 0
vn 0 -1 0
vn 0 -1 0
vn 0 -1 0
vn 0 -1 0
vn 0 -1 0
vn 0 -1 0
vn 0 -1 0
vn 0 -1 0
vn -0.4472136 0 0.8944272
vn -0.4472136 0 0.8944272
vn -0.4472136 0 0.8944272
vn -0.4472136 0 0.8944272
vn -0.4472136 0 -0.8944272
vn -0.4472136 0 -0.8944272
vn -0.4472136 0 -0.8944272
vn -0.4472136 0 -0.8944272
vn 0 1 0
vn 0 1 0
vn 0 1 0
vn 0 1 0
vn 0 -1 0
vn 0 -1 0
vn 0 -1 0
vn 0 -1 0
vn 0.4472136 0 -0.8944272
vn 0.4472136 0 -0.8944272
vn 0.4472136 0 -0.8944272
vn 0.4472136 0 -0.8944272
vn 0.4472136 0 0.8944272
vn 0.4472136 0 0.8944272
vn 0.4472136 0 0.8944272
vn 0.4472136 0 0.8944272
vn 0 1 0
vn 0 1 0
vn 0 1 0
vn 0 1 0
vn 0 -1 0
vn 0 -1 0
vn 0 -1 0
vn 0 -1 0
vn 0 0 -1
vn 0 0 -1
vn 0 0 -1
vn 0 0 -1
vn 0 0 1
vn 0 0 1
vn 0 0 1
vn 0 0 1
vn 0 1 0
vn 0 1 0
vn 0 1 0
vn 0 1 0
vn 0 -1 0
vn 0 -1 0
vn 0 -1 0
vn 0 -1 0
vn 0 0 1
vn 0 0 1
vn 0 0 1
vn 0 0 1
vn 0 0 -1
vn 0 0 -1
vn 0 0 -1
vn 0 0 -1
vn 0 1 0
vn 0 1 0
vn 0 1 0
vn 0 1 0

vt 0.5 0
vt 0 0
vt 0.5 1
vt 0 1
vt 0.25 0
vt 0 0
vt 0.25 1
vt 0 1
vt 0.5 0
vt 0 0
vt 0.5 1
vt 0 1
vt 0.25 0
vt 0 0
vt 0.25 1
vt 0 1
vt 0 0.5
vt 0.5 0.5
vt 0 0
vt 0.5 0
vt 0.5 0
vt 0 0
vt 0.5 0.5
vt 0 0.5
vt 0.25 0.5
vt 0.25 0
vt 0 0.375
vt 0 0.125
vt 0.2795085 1
vt 0.2795085 0
vt 0 1
vt 0 0
vt -1.490116E-08 0
vt -1.490116E-08 1
vt 0.2795085 0
vt 0.2795085 1
vt 0 0
vt 0 0.5
vt 0.25 0.125
vt 0.25 0.375
vt 0 0
vt 0 0.5
vt 0.25 0.125
vt 0.25 0.375
vt 0.2795085 1
vt 0.2795085 0
vt 0 1
vt 0 0
vt -1.490116E-08 0
vt -1.490116E-08 1
vt 0.2795085 0
vt 0.2795085 1
vt 0.25 0.5
vt 0.25 0
vt 0 0.375
vt 0 0.125
vt 0 0
vt 0 0.25
vt 5 0
vt 5 0.25
vt 5 1
vt 5 0
vt 0 1
vt 0 0
vt 0 0
vt 0 1
vt 5 0
vt 5 1
vt 5 0.25
vt 5 0
vt 0 0.25
vt 0 0
vt 5 0.25
vt 5 0
vt 0 0.25
vt 0 0
vt 5 1
vt 5 0
vt 0 1
vt 0 0
vt 0 0
vt 0 1
vt 5 0
vt 5 1
vt 0 0
vt 0 0.25
vt 5 0
vt 5 0.25

usemtl Default
usemap Default
f 2/2/2 1/1/1 3/3/3
f 4/4/4 2/2/2 3/3/3
f 6/6/6 5/5/5 7/7/7
f 8/8/8 6/6/6 7/7/7
f 10/10/10 9/9/9 11/11/11
f 12/12/12 10/10/10 11/11/11
f 14/14/14 13/13/13 15/15/15
f 16/16/16 14/14/14 15/15/15
f 18/18/18 17/17/17 19/19/19
f 20/20/20 18/18/18 19/19/19
f 22/22/22 21/21/21 23/23/23
f 24/24/24 22/22/22 23/23/23
f 26/26/26 25/25/25 27/27/27
f 28/28/28 26/26/26 27/27/27
f 30/30/30 29/29/29 31/31/31
f 32/32/32 30/30/30 31/31/31
f 34/34/34 33/33/33 35/35/35
f 36/36/36 34/34/34 35/35/35
f 38/38/38 37/37/37 39/39/39
f 40/40/40 38/38/38 39/39/39
f 42/42/42 41/41/41 43/43/43
f 44/44/44 42/42/42 43/43/43
f 46/46/46 45/45/45 47/47/47
f 48/48/48 46/46/46 47/47/47
f 50/50/50 49/49/49 51/51/51
f 52/52/52 50/50/50 51/51/51
f 54/54/54 53/53/53 55/55/55
f 56/56/56 54/54/54 55/55/55
f 58/58/58 57/57/57 59/59/59
f 60/60/60 58/58/58 59/59/59
f 62/62/62 61/61/61 63/63/63
f 64/64/64 62/62/62 63/63/63
f 66/66/66 65/65/65 67/67/67
f 68/68/68 66/66/66 67/67/67
f 70/70/70 69/69/69 71/71/71
f 72/72/72 70/70/70 71/71/71
f 74/74/74 73/73/73 75/75/75
f 76/76/76 74/74/74 75/75/75
f 78/78/78 77/77/77 79/79/79
f 80/80/80 78/78/78 79/79/79
f 82/82/82 81/81/81 83/83/83
f 84/84/84 82/82/82 83/83/83
f 86/86/86 85/85/85 87/87/87
f 88/88/88 86/86/86 87/87/87
