mtllib ./Rocket_Mid.mtl
g Rocket_Mid
v -0.5 0 0
v -0.5 1 0
v -0.3535534 0 0.3535534
v -0.3535534 1 0.3535534
v -0.3535534 0 0.3535534
v -0.3535534 1 0.3535534
v 2.185569E-08 0 0.5
v 2.185569E-08 1 0.5
v 2.185569E-08 0 0.5
v 2.185569E-08 1 0.5
v 0.3535534 0 0.3535534
v 0.3535534 1 0.3535534
v 0.3535534 0 0.3535534
v 0.3535534 1 0.3535534
v 0.5 0 -4.371139E-08
v 0.5 1 -4.371139E-08
v 0.5 0 -4.371139E-08
v 0.5 1 -4.371139E-08
v 0.3535534 0 -0.3535534
v 0.3535534 1 -0.3535534
v 0.3535534 0 -0.3535534
v 0.3535534 1 -0.3535534
v -5.96244E-09 0 -0.5
v -5.96244E-09 1 -0.5
v -5.96244E-09 0 -0.5
v -5.96244E-09 1 -0.5
v -0.3535533 0 -0.3535534
v -0.3535533 1 -0.3535534
v -0.3535533 0 -0.3535534
v -0.3535533 1 -0.3535534
v -0.5 0 0
v -0.5 1 0
v -0.5 1 0
v -0.5 2 0
v -0.3535534 1 0.3535534
v -0.3535534 2 0.3535534
v -0.3535534 1 0.3535534
v -0.3535534 2 0.3535534
v 2.185569E-08 1 0.5
v 2.185569E-08 2 0.5
v 2.185569E-08 1 0.5
v 2.185569E-08 2 0.5
v 0.3535534 1 0.3535534
v 0.3535534 2 0.3535534
v 0.3535534 1 0.3535534
v 0.3535534 2 0.3535534
v 0.5 1 -4.371139E-08
v 0.5 2 -4.371139E-08
v 0.5 1 -4.371139E-08
v 0.5 2 -4.371139E-08
v 0.3535534 1 -0.3535534
v 0.3535534 2 -0.3535534
v 0.3535534 1 -0.3535534
v 0.3535534 2 -0.3535534
v -5.96244E-09 1 -0.5
v -5.96244E-09 2 -0.5
v -5.96244E-09 1 -0.5
v -5.96244E-09 2 -0.5
v -0.3535533 1 -0.3535534
v -0.3535533 2 -0.3535534
v -0.3535533 1 -0.3535534
v -0.3535533 2 -0.3535534
v -0.5 1 0
v -0.5 2 0
v -0.5 2 0
v -0.5 3 0
v -0.3535534 2 0.3535534
v -0.3535534 3 0.3535534
v -0.3535534 2 0.3535534
v -0.3535534 3 0.3535534
v 2.185569E-08 2 0.5
v 2.185569E-08 3 0.5
v 2.185569E-08 2 0.5
v 2.185569E-08 3 0.5
v 0.3535534 2 0.3535534
v 0.3535534 3 0.3535534
v 0.3535534 2 0.3535534
v 0.3535534 3 0.3535534
v 0.5 2 -4.371139E-08
v 0.5 3 -4.371139E-08
v 0.5 2 -4.371139E-08
v 0.5 3 -4.371139E-08
v 0.3535534 2 -0.3535534
v 0.3535534 3 -0.3535534
v 0.3535534 2 -0.3535534
v 0.3535534 3 -0.3535534
v -5.96244E-09 2 -0.5
v -5.96244E-09 3 -0.5
v -5.96244E-09 2 -0.5
v -5.96244E-09 3 -0.5
v -0.3535533 2 -0.3535534
v -0.3535533 3 -0.3535534
v -0.3535533 2 -0.3535534
v -0.3535533 3 -0.3535534
v -0.5 2 0
v -0.5 3 0
v -0.5 3 0
v -0.5 4 0
v -0.3535534 3 0.3535534
v -0.3535534 4 0.3535534
v -0.3535534 3 0.3535534
v -0.3535534 4 0.3535534
v 2.185569E-08 3 0.5
v 2.185569E-08 4 0.5
v 2.185569E-08 3 0.5
v 2.185569E-08 4 0.5
v 0.3535534 3 0.3535534
v 0.3535534 4 0.3535534
v 0.3535534 3 0.3535534
v 0.3535534 4 0.3535534
v 0.5 3 -4.371139E-08
v 0.5 4 -4.371139E-08
v 0.5 3 -4.371139E-08
v 0.5 4 -4.371139E-08
v 0.3535534 3 -0.3535534
v 0.3535534 4 -0.3535534
v 0.3535534 3 -0.3535534
v 0.3535534 4 -0.3535534
v -5.96244E-09 3 -0.5
v -5.96244E-09 4 -0.5
v -5.96244E-09 3 -0.5
v -5.96244E-09 4 -0.5
v -0.3535533 3 -0.3535534
v -0.3535533 4 -0.3535534
v -0.3535533 3 -0.3535534
v -0.3535533 4 -0.3535534
v -0.5 3 0
v -0.5 4 0
v -0.5 0 0
v 0 0 0
v -0.3535534 0 0.3535534
v -0.5 4 0
v 0 4 0
v -0.3535534 4 0.3535534
v -0.3535534 0 0.3535534
v 0 0 0
v 2.185569E-08 0 0.5
v -0.3535534 4 0.3535534
v 0 4 0
v 2.185569E-08 4 0.5
v 2.185569E-08 0 0.5
v 0 0 0
v 0.3535534 0 0.3535534
v 2.185569E-08 4 0.5
v 0 4 0
v 0.3535534 4 0.3535534
v 0.3535534 0 0.3535534
v 0 0 0
v 0.5 0 -4.371139E-08
v 0.3535534 4 0.3535534
v 0 4 0
v 0.5 4 -4.371139E-08
v 0.5 0 -4.371139E-08
v 0 0 0
v 0.3535534 0 -0.3535534
v 0.5 4 -4.371139E-08
v 0 4 0
v 0.3535534 4 -0.3535534
v 0.3535534 0 -0.3535534
v 0 0 0
v -5.96244E-09 0 -0.5
v 0.3535534 4 -0.3535534
v 0 4 0
v -5.96244E-09 4 -0.5
v -5.96244E-09 0 -0.5
v 0 0 0
v -0.3535533 0 -0.3535534
v -5.96244E-09 4 -0.5
v 0 4 0
v -0.3535533 4 -0.3535534
v -0.3535533 0 -0.3535534
v 0 0 0
v -0.5 0 0
v -0.3535533 4 -0.3535534
v 0 4 0
v -0.5 4 0

vn -0.9238796 0 0.3826835
vn -0.9238796 0 0.3826835
vn -0.9238796 0 0.3826835
vn -0.9238796 0 0.3826835
vn -0.3826834 0 0.9238796
vn -0.3826834 0 0.9238796
vn -0.3826834 0 0.9238796
vn -0.3826834 0 0.9238796
vn 0.3826835 0 0.9238796
vn 0.3826835 0 0.9238796
vn 0.3826835 0 0.9238796
vn 0.3826835 0 0.9238796
vn 0.9238796 0 0.3826834
vn 0.9238796 0 0.3826834
vn 0.9238796 0 0.3826834
vn 0.9238796 0 0.3826834
vn 0.9238795 0 -0.3826834
vn 0.9238795 0 -0.3826834
vn 0.9238795 0 -0.3826834
vn 0.9238795 0 -0.3826834
vn 0.3826835 0 -0.9238796
vn 0.3826835 0 -0.9238796
vn 0.3826835 0 -0.9238796
vn 0.3826835 0 -0.9238796
vn -0.3826833 0 -0.9238795
vn -0.3826833 0 -0.9238795
vn -0.3826833 0 -0.9238795
vn -0.3826833 0 -0.9238795
vn -0.9238794 0 -0.3826835
vn -0.9238794 0 -0.3826835
vn -0.9238794 0 -0.3826835
vn -0.9238794 0 -0.3826835
vn -0.9238796 0 0.3826835
vn -0.9238796 0 0.3826835
vn -0.9238796 0 0.3826835
vn -0.9238796 0 0.3826835
vn -0.3826834 0 0.9238796
vn -0.3826834 0 0.9238796
vn -0.3826834 0 0.9238796
vn -0.3826834 0 0.9238796
vn 0.3826835 0 0.9238796
vn 0.3826835 0 0.9238796
vn 0.3826835 0 0.9238796
vn 0.3826835 0 0.9238796
vn 0.9238796 0 0.3826834
vn 0.9238796 0 0.3826834
vn 0.9238796 0 0.3826834
vn 0.9238796 0 0.3826834
vn 0.9238795 0 -0.3826834
vn 0.9238795 0 -0.3826834
vn 0.9238795 0 -0.3826834
vn 0.9238795 0 -0.3826834
vn 0.3826835 0 -0.9238796
vn 0.3826835 0 -0.9238796
vn 0.3826835 0 -0.9238796
vn 0.3826835 0 -0.9238796
vn -0.3826833 0 -0.9238795
vn -0.3826833 0 -0.9238795
vn -0.3826833 0 -0.9238795
vn -0.3826833 0 -0.9238795
vn -0.9238794 0 -0.3826835
vn -0.9238794 0 -0.3826835
vn -0.9238794 0 -0.3826835
vn -0.9238794 0 -0.3826835
vn -0.9238796 0 0.3826835
vn -0.9238796 0 0.3826835
vn -0.9238796 0 0.3826835
vn -0.9238796 0 0.3826835
vn -0.3826834 0 0.9238796
vn -0.3826834 0 0.9238796
vn -0.3826834 0 0.9238796
vn -0.3826834 0 0.9238796
vn 0.3826835 0 0.9238796
vn 0.3826835 0 0.9238796
vn 0.3826835 0 0.9238796
vn 0.3826835 0 0.9238796
vn 0.9238796 0 0.3826834
vn 0.9238796 0 0.3826834
vn 0.9238796 0 0.3826834
vn 0.9238796 0 0.3826834
vn 0.9238795 0 -0.3826834
vn 0.9238795 0 -0.3826834
vn 0.9238795 0 -0.3826834
vn 0.9238795 0 -0.3826834
vn 0.3826835 0 -0.9238796
vn 0.3826835 0 -0.9238796
vn 0.3826835 0 -0.9238796
vn 0.3826835 0 -0.9238796
vn -0.3826833 0 -0.9238795
vn -0.3826833 0 -0.9238795
vn -0.3826833 0 -0.9238795
vn -0.3826833 0 -0.9238795
vn -0.9238794 0 -0.3826835
vn -0.9238794 0 -0.3826835
vn -0.9238794 0 -0.3826835
vn -0.9238794 0 -0.3826835
vn -0.9238796 0 0.3826835
vn -0.9238796 0 0.3826835
vn -0.9238796 0 0.3826835
vn -0.9238796 0 0.3826835
vn -0.3826834 0 0.9238796
vn -0.3826834 0 0.9238796
vn -0.3826834 0 0.9238796
vn -0.3826834 0 0.9238796
vn 0.3826835 0 0.9238796
vn 0.3826835 0 0.9238796
vn 0.3826835 0 0.9238796
vn 0.3826835 0 0.9238796
vn 0.9238796 0 0.3826834
vn 0.9238796 0 0.3826834
vn 0.9238796 0 0.3826834
vn 0.9238796 0 0.3826834
vn 0.9238795 0 -0.3826834
vn 0.9238795 0 -0.3826834
vn 0.9238795 0 -0.3826834
vn 0.9238795 0 -0.3826834
vn 0.3826835 0 -0.9238796
vn 0.3826835 0 -0.9238796
vn 0.3826835 0 -0.9238796
vn 0.3826835 0 -0.9238796
vn -0.3826833 0 -0.9238795
vn -0.3826833 0 -0.9238795
vn -0.3826833 0 -0.9238795
vn -0.3826833 0 -0.9238795
vn -0.9238794 0 -0.3826835
vn -0.9238794 0 -0.3826835
vn -0.9238794 0 -0.3826835
vn -0.9238794 0 -0.3826835
vn 0 -0.9999999 0
vn 0 -0.9999999 0
vn 0 -0.9999999 0
vn 0 0.9999999 0
vn 0 0.9999999 0
vn 0 0.9999999 0
vn 0 -0.9999999 0
vn 0 -0.9999999 0
vn 0 -0.9999999 0
vn 0 0.9999999 0
vn 0 0.9999999 0
vn 0 0.9999999 0
vn 0 -0.9999999 0
vn 0 -0.9999999 0
vn 0 -0.9999999 0
vn 0 0.9999999 0
vn 0 0.9999999 0
vn 0 0.9999999 0
vn 0 -0.9999999 0
vn 0 -0.9999999 0
vn 0 -0.9999999 0
vn 0 0.9999999 0
vn 0 0.9999999 0
vn 0 0.9999999 0
vn 0 -0.9999999 0
vn 0 -0.9999999 0
vn 0 -0.9999999 0
vn 0 0.9999999 0
vn 0 0.9999999 0
vn 0 0.9999999 0
vn 0 -0.9999999 0
vn 0 -0.9999999 0
vn 0 -0.9999999 0
vn 0 0.9999999 0
vn 0 0.9999999 0
vn 0 0.9999999 0
vn 0 -0.9999999 0
vn 0 -0.9999999 0
vn 0 -0.9999999 0
vn 0 0.9999999 0
vn 0 0.9999999 0
vn 0 0.9999999 0
vn 0 -0.9999999 0
vn 0 -0.9999999 0
vn 0 -0.9999999 0
vn 0 0.9999999 0
vn 0 0.9999999 0
vn 0 0.9999999 0

vt 1.490116E-08 0
vt 1.490116E-08 1
vt 0.3826835 0
vt 0.3826835 1
vt 0 0
vt 0 1
vt 0.3826835 0
vt 0.3826835 1
vt 0 0
vt 0 1
vt 0.3826834 0
vt 0.3826834 1
vt 0 0
vt 0 1
vt 0.3826835 0
vt 0.3826835 1
vt 0 0
vt 0 1
vt 0.3826834 0
vt 0.3826834 1
vt 0 0
vt 0 1
vt 0.3826835 0
vt 0.3826835 1
vt 0 0
vt 0 1
vt 0.3826833 0
vt 0.3826833 1
vt 0 0
vt 0 1
vt 0.3826835 0
vt 0.3826835 1
vt 1.490116E-08 0
vt 1.490116E-08 1
vt 0.3826835 0
vt 0.3826835 1
vt 0 0
vt 0 1
vt 0.3826835 0
vt 0.3826835 1
vt 0 0
vt 0 1
vt 0.3826834 0
vt 0.3826834 1
vt 0 0
vt 0 1
vt 0.3826835 0
vt 0.3826835 1
vt 0 0
vt 0 1
vt 0.3826834 0
vt 0.3826834 1
vt 0 0
vt 0 1
vt 0.3826835 0
vt 0.3826835 1
vt 0 0
vt 0 1
vt 0.3826833 0
vt 0.3826833 1
vt 0 0
vt 0 1
vt 0.3826835 0
vt 0.3826835 1
vt 1.490116E-08 0
vt 1.490116E-08 1
vt 0.3826835 0
vt 0.3826835 1
vt 0 0
vt 0 1
vt 0.3826835 0
vt 0.3826835 1
vt 0 0
vt 0 1
vt 0.3826834 0
vt 0.3826834 1
vt 0 0
vt 0 1
vt 0.3826835 0
vt 0.3826835 1
vt 0 0
vt 0 1
vt 0.3826834 0
vt 0.3826834 1
vt 0 0
vt 0 1
vt 0.3826835 0
vt 0.3826835 1
vt 0 0
vt 0 1
vt 0.3826833 0
vt 0.3826833 1
vt 0 0
vt 0 1
vt 0.3826835 0
vt 0.3826835 1
vt 1.490116E-08 0
vt 1.490116E-08 1
vt 0.3826835 0
vt 0.3826835 1
vt 0 0
vt 0 1
vt 0.3826835 0
vt 0.3826835 1
vt 0 0
vt 0 1
vt 0.3826834 0
vt 0.3826834 1
vt 0 0
vt 0 1
vt 0.3826835 0
vt 0.3826835 1
vt 0 0
vt 0 1
vt 0.3826834 0
vt 0.3826834 1
vt 0 0
vt 0 1
vt 0.3826835 0
vt 0.3826835 1
vt 0 0
vt 0 1
vt 0.3826833 0
vt 0.3826833 1
vt 0 0
vt 0 1
vt 0.3826835 0
vt 0.3826835 1
vt 0 0
vt 0.5 0
vt 0.1464466 0.3535534
vt 0.5 0
vt 0 0
vt 0.3535534 0.3535534
vt 0 0.3535534
vt 0.3535534 0
vt 0.3535534 0.5
vt 0.3535534 0.3535534
vt 2.980232E-08 0
vt 1.490116E-08 0.5
vt 1.490116E-08 0.5
vt 0 0
vt 0.3535534 0.3535534
vt 0.3535534 0.5
vt 0.3535534 0
vt 0 0.3535534
vt 0.3535534 0.3535534
vt 0 2.980232E-08
vt 0.5 -1.490116E-08
vt 0.1464466 0.3535534
vt 0.5 2.980232E-08
vt 0 -1.490116E-08
vt 0.5 0.3535533
vt 0 0.3535534
vt 0.3535534 0
vt 0 0.3535533
vt 0.5 0.3535534
vt 0.1464466 0
vt 0.3535534 0.1464466
vt 0 0.5
vt 0 0
vt 0 0.1464466
vt 0.3535534 0.5
vt 0.3535534 0
vt 0.3535533 0
vt 0.3535533 0.5
vt 0 0.1464466
vt 0 0
vt 0 0.5
vt 0.3535533 0.1464466
vt 0.1464467 0
vt 0.5 0.3535534
vt 0 0.3535534
vt 0.3535533 0
vt 0 0.3535534
vt 0.5 0.3535534

usemtl Default
usemap Default
f 2/2/2 1/1/1 3/3/3
f 4/4/4 2/2/2 3/3/3
f 6/6/6 5/5/5 7/7/7
f 8/8/8 6/6/6 7/7/7
f 10/10/10 9/9/9 11/11/11
f 12/12/12 10/10/10 11/11/11
f 14/14/14 13/13/13 15/15/15
f 16/16/16 14/14/14 15/15/15
f 18/18/18 17/17/17 19/19/19
f 20/20/20 18/18/18 19/19/19
f 22/22/22 21/21/21 23/23/23
f 24/24/24 22/22/22 23/23/23
f 26/26/26 25/25/25 27/27/27
f 28/28/28 26/26/26 27/27/27
f 30/30/30 29/29/29 31/31/31
f 32/32/32 30/30/30 31/31/31
f 34/34/34 33/33/33 35/35/35
f 36/36/36 34/34/34 35/35/35
f 38/38/38 37/37/37 39/39/39
f 40/40/40 38/38/38 39/39/39
f 42/42/42 41/41/41 43/43/43
f 44/44/44 42/42/42 43/43/43
f 46/46/46 45/45/45 47/47/47
f 48/48/48 46/46/46 47/47/47
f 50/50/50 49/49/49 51/51/51
f 52/52/52 50/50/50 51/51/51
f 54/54/54 53/53/53 55/55/55
f 56/56/56 54/54/54 55/55/55
f 58/58/58 57/57/57 59/59/59
f 60/60/60 58/58/58 59/59/59
f 62/62/62 61/61/61 63/63/63
f 64/64/64 62/62/62 63/63/63
f 66/66/66 65/65/65 67/67/67
f 68/68/68 66/66/66 67/67/67
f 70/70/70 69/69/69 71/71/71
f 72/72/72 70/70/70 71/71/71
f 74/74/74 73/73/73 75/75/75
f 76/76/76 74/74/74 75/75/75
f 78/78/78 77/77/77 79/79/79
f 80/80/80 78/78/78 79/79/79
f 82/82/82 81/81/81 83/83/83
f 84/84/84 82/82/82 83/83/83
f 86/86/86 85/85/85 87/87/87
f 88/88/88 86/86/86 87/87/87
f 90/90/90 89/89/89 91/91/91
f 92/92/92 90/90/90 91/91/91
f 94/94/94 93/93/93 95/95/95
f 96/96/96 94/94/94 95/95/95
f 98/98/98 97/97/97 99/99/99
f 100/100/100 98/98/98 99/99/99
f 102/102/102 101/101/101 103/103/103
f 104/104/104 102/102/102 103/103/103
f 106/106/106 105/105/105 107/107/107
f 108/108/108 106/106/106 107/107/107
f 110/110/110 109/109/109 111/111/111
f 112/112/112 110/110/110 111/111/111
f 114/114/114 113/113/113 115/115/115
f 116/116/116 114/114/114 115/115/115
f 118/118/118 117/117/117 119/119/119
f 120/120/120 118/118/118 119/119/119
f 122/122/122 121/121/121 123/123/123
f 124/124/124 122/122/122 123/123/123
f 126/126/126 125/125/125 127/127/127
f 128/128/128 126/126/126 127/127/127
f 130/130/130 131/131/131 129/129/129
f 136/136/136 137/137/137 135/135/135
f 142/142/142 143/143/143 141/141/141
f 148/148/148 149/149/149 147/147/147
f 154/154/154 155/155/155 153/153/153
f 160/160/160 161/161/161 159/159/159
f 166/166/166 167/167/167 165/165/165
f 172/172/172 173/173/173 171/171/171
f 133/133/133 132/132/132 134/134/134
f 139/139/139 138/138/138 140/140/140
f 145/145/145 144/144/144 146/146/146
f 151/151/151 150/150/150 152/152/152
f 157/157/157 156/156/156 158/158/158
f 163/163/163 162/162/162 164/164/164
f 169/169/169 168/168/168 170/170/170
f 175/175/175 174/174/174 176/176/176
